<?xml version="1.0" encoding="utf-8"?>
<!-- Generator: Adobe Illustrator 26.5.0, SVG Export Plug-In . SVG Version: 6.00 Build 0)  -->
<svg version="1.1" id="Calque_1" xmlns="http://www.w3.org/2000/svg" xmlns:xlink="http://www.w3.org/1999/xlink" x="0px" y="0px"
	 viewBox="0 0 24 24" style="enable-background:new 0 0 24 24;" xml:space="preserve">
<path d="M12,1L3,5v6c0,5.5,3.8,10.7,9,12c5.2-1.3,9-6.5,9-12V5L12,1z M12,4.8c1.9,0,3.5,1.6,3.5,3.5s-1.6,3.5-3.5,3.5
	s-3.5-1.6-3.5-3.5S10.1,4.8,12,4.8z M12,19.8c-2,0-4.4-1.8-6.1-3.9c1.7-1.3,3.8-2.1,6.1-2.1s4.5,0.8,6.1,2.1
	C16.4,18,14,19.8,12,19.8z"/>
</svg>
